<svg id="Layer_1" data-name="Layer 1" xmlns="http://www.w3.org/2000/svg" viewBox="0 0 127.909 64.012">
  <defs>
    <style>
      .cls-1 {
        fill: #fff;
      }
    </style>
  </defs>
  <title>bcb3b5dd-51dc-4119-92da-5033003b2bfe</title>
  <g>
    <g>
      <path class="cls-1" d="M1.914,32.706h2.87V28.719H6.7V38.765H4.784V34.46H1.914v4.305H0V28.719H1.914Z"/>
      <path class="cls-1" d="M13.395,28.719,15.1,32.865l1.706-4.146h2.2l-2.95,6.506v3.54H14.144v-3.54l-2.95-6.506Z"/>
      <path class="cls-1" d="M30.2,36.054c0,2.073-1.276,2.711-2.87,2.711H23.5V28.719h3.827c1.595,0,2.87.638,2.87,2.711Zm-1.914-4.305c0-.638-.159-1.276-1.275-1.276H25.418v6.538h1.595c1.116,0,1.275-.638,1.275-1.276Z"/>
      <path class="cls-1" d="M42.352,32.275c0,1.4-.462,2.169-1.627,2.487l2.025,4H40.519l-1.913-3.907H37.569v3.907H35.655V28.719h4.194a2.214,2.214,0,0,1,2.5,2.424Zm-2.806.829c.622,0,.893-.144.893-.829V31.3c0-.67-.287-.829-.925-.829H37.569V33.1Z"/>
      <path class="cls-1" d="M50.548,38.925c-1.212,0-2.5-.478-2.5-2.264V30.824c0-1.786,1.292-2.264,2.5-2.264h1.69c1.212,0,2.5.478,2.5,2.264V36.66c0,1.786-1.292,2.264-2.5,2.264Zm-.59-7.463v4.56c0,1,.43,1.148,1.052,1.148h.765c.622,0,1.052-.144,1.052-1.148v-4.56c0-1-.446-1.132-1.084-1.132h-.718C50.4,30.33,49.958,30.457,49.958,31.462Z"/>
    </g>
    <g>
      <path class="cls-1" d="M66.12,28.719l2.535,5.533,2.519-5.533h1.483V38.765H71.493V30.872l-2.376,5.135h-.941L65.8,30.872v7.893H64.636V28.719Z"/>
      <path class="cls-1" d="M82.241,28.639l2.886,10.126H83.851l-1.021-3.62H80.024l-1,3.62H77.744L80.63,28.639Zm-1.961,5.39h2.28l-1.116-4.034Z"/>
      <path class="cls-1" d="M96.879,38.765h-1.4L93.2,34.6H91.378v4.162H90.214V28.719h3.779a2.2,2.2,0,0,1,2.487,2.408v1.021a2.151,2.151,0,0,1-1.93,2.408Zm-2.87-5.278a1.192,1.192,0,0,0,1.307-1.339v-.973a1.2,1.2,0,0,0-1.323-1.339H91.378v3.652Z"/>
      <path class="cls-1" d="M103.768,28.719V38.765H102.6V28.719Z"/>
      <path class="cls-1" d="M116.078,28.719V38.765h-1.483l-3.779-7.734v7.734h-1.164V28.719h1.371l3.891,8.021V28.719Z"/>
      <path class="cls-1" d="M123.126,33.041h3.827v1.1h-3.827v3.524h4.784v1.1h-5.948V28.719h5.948v1.116h-4.784Z"/>
    </g>
    <g>
      <path class="cls-1" d="M66.883,63.047a4.786,4.786,0,0,1-3.123-1.666.54.54,0,0,0-.406-.18.481.481,0,0,0-.352.153,4.431,4.431,0,0,1-3.346,1.693,4.787,4.787,0,0,1-3.123-1.666.481.481,0,0,0-.376-.18h-.138a.481.481,0,0,0-.352.153,4.429,4.429,0,0,1-3.346,1.693A4.786,4.786,0,0,1,49.2,61.382l-.751.6a5.693,5.693,0,0,0,3.832,2.026,5.123,5.123,0,0,0,3.8-1.7,5.486,5.486,0,0,0,3.534,1.7c.053,0,.105,0,.158,0a5.166,5.166,0,0,0,3.589-1.649,5.452,5.452,0,0,0,3.481,1.646,5.328,5.328,0,0,0,4.094-2l-.7-.656A4.447,4.447,0,0,1,66.883,63.047Z"/>
      <path class="cls-1" d="M52.276,59a5.132,5.132,0,0,0,3.8-1.7A5.486,5.486,0,0,0,59.612,59c.053,0,.105,0,.158,0a5.166,5.166,0,0,0,3.589-1.649A5.451,5.451,0,0,0,66.84,59a5.325,5.325,0,0,0,4.094-2l-.7-.656a4.451,4.451,0,0,1-3.346,1.693,4.787,4.787,0,0,1-3.123-1.666.54.54,0,0,0-.406-.18.481.481,0,0,0-.352.153,4.449,4.449,0,0,1-3.346,1.693,4.787,4.787,0,0,1-3.123-1.666.481.481,0,0,0-.376-.18h-.138a.481.481,0,0,0-.352.153,4.447,4.447,0,0,1-3.346,1.693A4.787,4.787,0,0,1,49.2,56.373l-.751.6A5.692,5.692,0,0,0,52.276,59Z"/>
    </g>
    <g>
      <rect class="cls-1" x="59.457" y="1.989" width="0.465" height="0.962"/>
      <rect class="cls-1" x="59.457" y="8.329" width="0.465" height="0.962"/>
      <rect class="cls-1" x="62.378" y="5.407" width="0.962" height="0.465"/>
      <rect class="cls-1" x="56.038" y="5.407" width="0.962" height="0.465"/>
      <path class="cls-1" d="M59.689,1.121A4.518,4.518,0,1,0,64.208,5.64,4.523,4.523,0,0,0,59.689,1.121Zm0,8.446A3.927,3.927,0,1,1,63.617,5.64,3.932,3.932,0,0,1,59.689,9.567Z"/>
      <path class="cls-1" d="M59.689,0a5.64,5.64,0,1,0,5.64,5.64A5.646,5.646,0,0,0,59.689,0Zm0,10.587A4.947,4.947,0,1,1,64.636,5.64,4.947,4.947,0,0,1,59.689,10.587Z"/>
      <path class="cls-1" d="M60.384,5.874a.131.131,0,0,1,0-.153l.869-1.207,1.126-1.563L60.815,4.076l-1.207.869a.131.131,0,0,1-.153,0l-.553-.4L57.81,3.76,58.6,4.853l.4.553a.131.131,0,0,1,0,.153l-.869,1.207L57,8.329,58.564,7.2l1.207-.869a.131.131,0,0,1,.153,0l.553.4,1.093.787-.787-1.093Zm-.694,0a.233.233,0,1,1,.233-.233A.233.233,0,0,1,59.689,5.872Z"/>
    </g>
  </g>
</svg>
