<?xml version="1.0" encoding="utf-8"?>
<!-- Generator: Adobe Illustrator 22.0.0, SVG Export Plug-In . SVG Version: 6.00 Build 0)  -->
<svg version="1.1" id="Layer_1" xmlns="http://www.w3.org/2000/svg" xmlns:xlink="http://www.w3.org/1999/xlink" x="0px" y="0px"
	 viewBox="0 0 283.5 283.5" enable-background="new 0 0 283.5 283.5" xml:space="preserve">
<g>
	<g>
		<path fill="#0C1422" d="M220.3,267c-19.9-0.7-34.3-18.2-34.4-18.4c-1-1.3-2.9-2-4.5-2c-1.5,0-2.9,0.6-3.9,1.7
			c-11.9,12.8-24.3,19.1-36.9,18.7c-19.9-0.7-34.3-18.2-34.4-18.4c-1-1.3-2.5-2-4.1-2h-1.5c-1.5,0-2.9,0.6-3.9,1.7
			c-11.9,12.8-24.3,19.1-36.9,18.7c-19.9-0.7-34.3-18.2-34.4-18.4l-8.3,6.6c0.7,0.9,17.4,21.4,42.2,22.3
			c14.6,0.6,28.7-5.7,41.9-18.7c6.1,6.2,20.2,18,38.9,18.7c0.6,0,1.2,0,1.7,0c13.8,0,27-6.1,39.6-18.2c6.4,6.3,20.2,17.5,38.4,18.1
			c15.9,0.6,31-6.8,45.1-22l-7.8-7.2C245.3,261.2,232.8,267.4,220.3,267z"/>
		<path fill="#0C1422" d="M59.3,222.4c14.6,0.6,28.7-5.8,41.9-18.7c6.1,6.2,20.2,18,38.9,18.7c0.6,0,1.2,0,1.7,0
			c13.8,0,27-6.1,39.6-18.2c6.4,6.3,20.2,17.5,38.4,18.1c15.9,0.6,31-6.8,45.1-22l-7.8-7.2c-11.9,12.8-24.4,19.1-36.9,18.7
			c-19.9-0.7-34.3-18.2-34.4-18.4c-1-1.3-2.9-2-4.5-2c-1.5,0-2.9,0.6-3.9,1.7c-11.9,12.8-24.3,19.1-36.9,18.7
			c-19.9-0.7-34.3-18.2-34.4-18.4c-1-1.3-2.5-2-4.1-2h-1.5c-1.5,0-2.9,0.6-3.9,1.7c-11.9,12.8-24.3,19.1-36.9,18.7
			c-19.9-0.7-34.3-18.2-34.4-18.4l-8.3,6.6C17.8,200.9,34.5,221.5,59.3,222.4z"/>
	</g>
	<g>
		<rect x="138.5" y="26.9" fill="#0C1422" width="5.1" height="10.6"/>
		<rect x="138.5" y="96.7" fill="#0C1422" width="5.1" height="10.6"/>
		<rect x="170.7" y="64.5" fill="#0C1422" width="10.6" height="5.1"/>
		<rect x="100.8" y="64.5" fill="#0C1422" width="10.6" height="5.1"/>
		<path fill="#0C1422" d="M141,17.3c-27.5,0-49.8,22.3-49.8,49.8s22.3,49.8,49.8,49.8s49.8-22.3,49.8-49.8S168.5,17.3,141,17.3z
			 M141,110.4c-23.9,0-43.3-19.4-43.3-43.3c0-23.9,19.4-43.3,43.3-43.3s43.3,19.4,43.3,43.3C184.3,91,164.9,110.4,141,110.4z"/>
		<path fill="#0C1422" d="M141,5c-34.3,0-62.2,27.9-62.2,62.2s27.9,62.2,62.2,62.2s62.2-27.9,62.2-62.2S175.3,5,141,5z M141,121.6
			c-30.1,0-54.5-24.4-54.5-54.5s24.4-54.5,54.5-54.5c30.1,0,54.5,24.4,54.5,54.5S171.1,121.6,141,121.6z"/>
		<path fill="#0C1422" d="M148.7,69.7c-0.4-0.5-0.4-1.2,0-1.7l9.6-13.3l12.4-17.2l-17.2,12.4l-13.3,9.6c-0.5,0.4-1.2,0.4-1.7,0
			l-6.1-4.4l-12-8.7l8.7,12l4.4,6.1c0.4,0.5,0.4,1.2,0,1.7l-9.6,13.3l-12.4,17.2l17.2-12.4l13.3-9.6c0.5-0.4,1.2-0.4,1.7,0l6.1,4.4
			l12,8.7l-8.7-12L148.7,69.7z M141,69.7c-1.4,0-2.6-1.1-2.6-2.6c0-1.4,1.1-2.6,2.6-2.6c1.4,0,2.6,1.1,2.6,2.6
			C143.6,68.5,142.4,69.7,141,69.7z"/>
	</g>
</g>
</svg>
